<?xml version="1.0" encoding="UTF-8" standalone="no"?>
<svg
   inkscape:version="1.1.2 (0a00cf5339, 2022-02-04)"
   id="svg8"
   version="1.1"
   viewBox="0 0 211.66666 211.66667"
   height="800"
   width="800"
   sodipodi:docname="driving_license.svg"
   xmlns:inkscape="http://www.inkscape.org/namespaces/inkscape"
   xmlns:sodipodi="http://sodipodi.sourceforge.net/DTD/sodipodi-0.dtd"
   xmlns="http://www.w3.org/2000/svg"
   xmlns:svg="http://www.w3.org/2000/svg"
   xmlns:rdf="http://www.w3.org/1999/02/22-rdf-syntax-ns#"
   xmlns:cc="http://creativecommons.org/ns#"
   xmlns:dc="http://purl.org/dc/elements/1.1/">
  <defs
     id="defs2">
    <clipPath
       id="clipPath1606"
       clipPathUnits="userSpaceOnUse">
      <rect
         clip-path="none"
         style="fill:none;stroke:#808080;stroke-width:0.264583;stroke-linecap:round;stroke-linejoin:round;stroke-miterlimit:4;stroke-dasharray:none"
         id="rect1608"
         width="185.51366"
         height="135.46573"
         x="38.323875"
         y="32.930908"
         rx="5.4510184e-07"
         ry="3.9804405e-07" />
    </clipPath>
  </defs>
  <sodipodi:namedview
     units="px"
     showgrid="false"
     inkscape:document-rotation="0"
     inkscape:current-layer="g904"
     inkscape:document-units="px"
     inkscape:cy="500.61832"
     inkscape:cx="146.06901"
     inkscape:zoom="0.37653436"
     inkscape:pageshadow="2"
     inkscape:pageopacity="0.0"
     borderopacity="1.0"
     bordercolor="#666666"
     pagecolor="#ffffff"
     id="base"
     showguides="true"
     inkscape:guide-bbox="true"
     inkscape:window-width="1920"
     inkscape:window-height="1019"
     inkscape:window-x="0"
     inkscape:window-y="30"
     inkscape:window-maximized="1"
     inkscape:pagecheckerboard="0">
    <sodipodi:guide
       id="guide10"
       orientation="0,800"
       position="0,211.66666" />
    <sodipodi:guide
       id="guide12"
       orientation="800,0"
       position="211.66666,211.66666" />
    <sodipodi:guide
       id="guide14"
       orientation="0,-800"
       position="211.66666,0" />
    <sodipodi:guide
       id="guide16"
       orientation="-800,0"
       position="0,0" />
    <sodipodi:guide
       position="12.913271,259.30402"
       orientation="1,0"
       id="guide65" />
    <sodipodi:guide
       position="198.42693,260.17963"
       orientation="1,0"
       id="guide67" />
    <sodipodi:guide
       position="-240.51312,198.52088"
       orientation="0,-1"
       id="guide69" />
    <sodipodi:guide
       position="-205.82869,13.316532"
       orientation="0,-1"
       id="guide71" />
    <inkscape:grid
       type="xygrid"
       id="grid77" />
  </sodipodi:namedview>
  <metadata
     id="metadata5">
    <rdf:RDF>
      <cc:Work
         rdf:about="">
        <dc:format>image/svg+xml</dc:format>
        <dc:type
           rdf:resource="http://purl.org/dc/dcmitype/StillImage" />
      </cc:Work>
    </rdf:RDF>
  </metadata>
  <g
     id="layer1"
     inkscape:groupmode="layer"
     inkscape:label="Capa 1">
    <path
       style="color:#000000;fill:#000000;stroke-linecap:round;stroke-linejoin:round;-inkscape-stroke:none"
       d="m 31.75,53.457031 a 5.292179,5.292179 0 0 0 -5.291016,5.291016 V 152.91797 A 5.292179,5.292179 0 0 0 31.75,158.20898 h 148.16602 a 5.292179,5.292179 0 0 0 5.29296,-5.29101 V 58.748047 a 5.292179,5.292179 0 0 0 -5.29296,-5.291016 z m 5.291016,10.583985 H 174.625 V 147.62695 H 37.041016 Z"
       id="rect29" />
    <g
       transform="matrix(-0.30987657,0,0,0.30731591,121.61566,66.533023)"
       id="g1009"
       style="stroke-width:3.2405">
      <g
         id="g1004"
         transform="matrix(0.55389314,0,0,0.55389314,124.43585,25.374258)"
         style="stroke-width:5.85042">
        <g
           id="path1000">
          <path
             style="color:#000000;fill:#000000;stroke-width:61.9169;stroke-linecap:round;stroke-linejoin:round;-inkscape-stroke:none"
             d="M 136.05561,69.50798 A 30.222267,30.222267 0 0 1 105.83334,99.730247 30.222267,30.222267 0 0 1 75.611076,69.50798 30.222267,30.222267 0 0 1 105.83334,39.285713 30.222267,30.222267 0 0 1 136.05561,69.50798 Z"
             id="path848" />
          <path
             style="color:#000000;fill:#000000;stroke-linecap:round;stroke-linejoin:round;-inkscape-stroke:none"
             d="m 105.83398,8.328125 c -33.422446,3.3e-6 -61.181636,27.757238 -61.181636,61.179687 0,33.422448 27.75919,61.181638 61.181636,61.181638 33.42246,1e-5 61.17969,-27.75918 61.17969,-61.181638 0,-33.422454 -27.75723,-61.1796903 -61.17969,-61.179687 z m 0,60.443359 c 0.0399,0 0.73633,0.696437 0.73633,0.736328 0,0.03989 -0.69643,0.736329 -0.73633,0.736329 -0.0399,0 -0.73632,-0.696437 -0.73632,-0.736329 0,-0.03989 0.69643,-0.736328 0.73632,-0.736328 z"
             id="path850" />
        </g>
        <g
           id="path1002">
          <path
             style="color:#000000;fill:#000000;stroke-width:61.917;stroke-linejoin:round;-inkscape-stroke:none"
             d="m 167.99573,229.59271 c 0,-22.14395 -11.86637,-76.2854 -31.12309,-87.34245 -19.25671,-11.05706 -42.973467,-11.02949 -62.204233,0.0723 -19.230757,11.1018 -31.049163,65.2708 -30.997278,87.41469"
             id="path854" />
          <path
             style="color:#000000;fill:#000000;stroke-linejoin:round;-inkscape-stroke:none"
             d="m 105.72461,103.03125 c -16.080558,0.0187 -32.156987,4.18005 -46.535157,12.48047 -26.118699,15.07817 -30.658255,36.82608 -36.884766,57.41601 -6.22651,20.58994 -9.630782,40.24417 -9.591796,56.88282 l 61.916015,-0.14649 c -0.0129,-5.50522 2.46596,-24.0085 6.94336,-38.81445 4.4774,-14.80595 15.46218,-25.69122 8.574218,-21.71484 9.705153,-5.60272 21.592096,-5.61738 31.310546,-0.0371 -6.91275,-3.96925 4.08092,6.87157 8.57617,21.66601 4.49525,14.79445 7.00391,33.28611 7.00391,38.82813 h 61.91797 c 0,-16.60191 -3.42563,-36.25163 -9.67774,-56.82813 -6.2521,-20.57649 -10.81883,-42.33505 -36.98828,-57.36133 -14.39746,-8.26691 -30.48389,-12.38978 -46.56445,-12.37109 z"
             id="path856" />
        </g>
      </g>
    </g>
    <g
       transform="matrix(1,0,0,-1,-0.71822742,214.09749)"
       id="g904">
      <path
         style="color:#000000;fill:#000000;-inkscape-stroke:none"
         d="m 123.83203,78.400391 v 10.583984 h 39.35742 V 78.400391 Z"
         id="path868" />
      <path
         style="color:#000000;fill:#000000;-inkscape-stroke:none"
         d="m 99.875,127.54492 v 10.58399 h 63.31445 v -10.58399 z"
         id="path46" />
      <path
         style="color:#000000;fill:#000000;-inkscape-stroke:none"
         d="m 99.875,111.16406 v 10.58203 h 63.31445 v -10.58203 z"
         id="path48" />
    </g>
  </g>
</svg>
