<?xml version="1.0" encoding="UTF-8" standalone="no"?>
<svg
   inkscape:version="1.1.2 (0a00cf5339, 2022-02-04)"
   id="svg8"
   version="1.1"
   viewBox="0 0 211.66666 211.66667"
   height="800"
   width="800"
   sodipodi:docname="pets.svg"
   xmlns:inkscape="http://www.inkscape.org/namespaces/inkscape"
   xmlns:sodipodi="http://sodipodi.sourceforge.net/DTD/sodipodi-0.dtd"
   xmlns="http://www.w3.org/2000/svg"
   xmlns:svg="http://www.w3.org/2000/svg"
   xmlns:rdf="http://www.w3.org/1999/02/22-rdf-syntax-ns#"
   xmlns:cc="http://creativecommons.org/ns#"
   xmlns:dc="http://purl.org/dc/elements/1.1/">
  <defs
     id="defs2" />
  <sodipodi:namedview
     units="px"
     showgrid="false"
     inkscape:document-rotation="0"
     inkscape:current-layer="g931"
     inkscape:document-units="px"
     inkscape:cy="574.98073"
     inkscape:cx="366.50042"
     inkscape:zoom="0.37653436"
     inkscape:pageshadow="2"
     inkscape:pageopacity="0.0"
     borderopacity="1.0"
     bordercolor="#666666"
     pagecolor="#ffffff"
     id="base"
     showguides="true"
     inkscape:guide-bbox="true"
     inkscape:window-width="1920"
     inkscape:window-height="1019"
     inkscape:window-x="0"
     inkscape:window-y="30"
     inkscape:window-maximized="1"
     inkscape:pagecheckerboard="0">
    <sodipodi:guide
       id="guide10"
       orientation="0,800"
       position="0,211.66666" />
    <sodipodi:guide
       id="guide12"
       orientation="800,0"
       position="211.66666,211.66666" />
    <sodipodi:guide
       id="guide14"
       orientation="0,-800"
       position="211.66666,0" />
    <sodipodi:guide
       id="guide16"
       orientation="-800,0"
       position="0,0" />
    <sodipodi:guide
       position="12.913271,259.30402"
       orientation="1,0"
       id="guide65" />
    <sodipodi:guide
       position="198.42693,260.17963"
       orientation="1,0"
       id="guide67" />
    <sodipodi:guide
       position="-240.51312,198.52088"
       orientation="0,-1"
       id="guide69" />
    <sodipodi:guide
       position="-205.82869,13.316532"
       orientation="0,-1"
       id="guide71" />
    <inkscape:grid
       type="xygrid"
       id="grid77" />
  </sodipodi:namedview>
  <metadata
     id="metadata5">
    <rdf:RDF>
      <cc:Work
         rdf:about="">
        <dc:format>image/svg+xml</dc:format>
        <dc:type
           rdf:resource="http://purl.org/dc/dcmitype/StillImage" />
      </cc:Work>
    </rdf:RDF>
  </metadata>
  <g
     id="layer1"
     inkscape:groupmode="layer"
     inkscape:label="Capa 1">
    <g
       id="g961"
       transform="matrix(0.99263364,0,0,0.99249833,3.3434649,1.2466593)"
       style="stroke-width:1.00749">
      <path
         style="color:#000000;fill:#000000;stroke-linecap:round;stroke-linejoin:round;-inkscape-stroke:none"
         d="m 103.88672,40.681641 c -10.987363,-0.09511 -22.226373,1.831997 -33.632814,6.066406 -5.121784,1.901358 -10.161878,3.912346 -14.470703,7.148437 -4.308825,3.236092 -7.822295,8.128513 -8.582031,14.310547 l -8.466797,68.894529 c -0.420475,3.42144 0.356127,6.80757 1.957031,9.44531 1.600905,2.63775 3.824357,4.5417 6.154297,6.08594 4.659881,3.08849 10.019832,4.98968 14.578125,7.07617 40.296682,18.4452 63.990432,8.29231 83.289062,0.0566 4.71376,-2.01158 10.12528,-3.92297 14.78906,-7.06445 4.66379,-3.14147 8.86582,-8.77692 8.02735,-15.59961 l -8.4668,-68.894529 c -0.75966,-6.181404 -4.27313,-11.07518 -8.58203,-14.3125 -4.3089,-3.23732 -9.34768,-5.24928 -14.47266,-7.148437 -10.39719,-3.852875 -21.13373,-5.969339 -32.12109,-6.064453 z m -0.0762,10.595703 c 9.67189,0.08563 19.11883,1.993322 28.49218,5.466797 4.87719,1.807333 9.06446,3.640493 11.77344,5.675781 2.70899,2.035288 4.00365,3.843649 4.40235,7.08789 l 8.46679,68.892578 c 0.31989,2.60296 -0.40701,3.44072 -3.40039,5.45703 -2.99338,2.01631 -7.96765,3.94735 -13.01562,6.10156 -19.52299,8.33141 -36.97255,17.31115 -74.667972,0.0566 -5.064612,-2.31825 -10.093003,-4.25997 -13.125,-6.26953 -1.515998,-1.00477 -2.464761,-1.96443 -2.929687,-2.73047 -0.464927,-0.76603 -0.646986,-1.32384 -0.488282,-2.61523 l 8.466797,-68.892578 c 0.398621,-3.243611 1.692604,-5.050819 4.402344,-7.085937 2.70974,-2.035118 6.899687,-3.867004 11.777344,-5.677734 10.276387,-3.8149 20.173812,-5.552423 29.845706,-5.466797 z"
         id="rect79" />
      <path
         style="color:#000000;fill:#000000;-inkscape-stroke:none"
         d="m 45.640625,46.570312 c -2.205929,-0.185294 -4.427735,0.230702 -6.1875,1.171875 -7.039061,3.764695 -10.906371,11.776676 -13.681641,20.908204 -2.77527,9.131527 -3.893647,19.545877 -0.726562,28.544921 1.583542,4.499518 4.428615,8.693928 8.74414,11.455078 4.315526,2.76116 9.859726,3.94003 16.230469,3.4082 l -0.886719,-10.625 c -4.625177,0.38611 -7.551432,-0.45641 -9.597656,-1.765621 -2.046224,-1.309214 -3.453815,-3.233299 -4.43164,-6.011719 -1.955651,-5.556841 -1.431636,-14.334005 0.86914,-21.904297 2.300777,-7.570292 6.942368,-13.770177 8.507813,-14.607422 0.782722,-0.418622 -0.257898,-0.53706 0.285156,-0.06836 0.543054,0.4687 2.187813,2.861168 3.414062,7.742187 L 58.521484,62.21875 C 57.016413,56.227893 55.123049,51.930296 51.732422,49.003906 50.037108,47.540712 47.846554,46.755607 45.640625,46.570312 Z"
         id="path913" />
      <g
         id="g935"
         style="stroke-width:1.00749"
         transform="translate(0.01380708)">
        <path
           id="path907"
           style="stroke-width:10.6625;stroke-linecap:round;stroke-linejoin:round"
           d="m 81.232596,91.635979 a 7.1527238,7.1527238 0 0 1 -7.152724,7.152723 7.1527238,7.1527238 0 0 1 -7.152724,-7.152723 7.1527238,7.1527238 0 0 1 7.152724,-7.152724 7.1527238,7.1527238 0 0 1 7.152724,7.152724 z" />
        <path
           id="circle917"
           style="stroke-width:10.6625;stroke-linecap:round;stroke-linejoin:round"
           d="m 139.30328,91.635979 a 7.1527238,7.1527238 0 0 1 -7.15272,7.152723 7.1527238,7.1527238 0 0 1 -7.15273,-7.152723 7.1527238,7.1527238 0 0 1 7.15273,-7.152724 7.1527238,7.1527238 0 0 1 7.15272,7.152724 z" />
      </g>
      <g
         id="g931"
         transform="matrix(0.86558778,0,0,0.86558778,14.153829,16.573814)"
         style="stroke-width:1.16394">
        <g
           id="path905"
           inkscape:transform-center-y="2.2444276"
           transform="matrix(0.71581006,0,0,0.49422064,29.263637,49.081169)">
          <path
             style="color:#000000;fill:#000000;stroke-width:20.7106;stroke-linecap:round;stroke-linejoin:round;-inkscape-stroke:none"
             d="M 102.97211,151.925 95.106257,138.30095 87.240408,124.6769 h 15.731702 15.7317 l -7.86585,13.62405 z"
             id="path1345" />
          <path
             style="color:#000000;fill:#000000;stroke-linecap:round;stroke-linejoin:round;-inkscape-stroke:none"
             d="m 87.240234,114.32227 a 10.356335,10.356335 0 0 0 -8.96875,15.5332 l 7.867188,13.62305 7.865234,13.625 a 10.356335,10.356335 0 0 0 17.935544,0 l 7.86719,-13.625 7.86524,-13.62305 a 10.356335,10.356335 0 0 0 -8.96875,-15.5332 h -15.73047 z"
             id="path1347" />
        </g>
        <g
           id="g925"
           transform="matrix(0.85001138,0,0,0.83656387,15.417578,6.2057818)"
           style="stroke-width:1.38028">
          <path
             style="color:#000000;fill:#000000;stroke-linecap:round;-inkscape-stroke:none"
             d="m 103.66797,133.80078 a 7.3039999,7.3039999 0 0 0 -8.126954,6.375 c -0.739589,6.12233 -1.258976,13.53301 -2.97461,16.73828 -0.857816,1.60264 -1.30107,2.02357 -2.703125,2.38867 -1.402055,0.3651 -4.546284,0.4051 -9.99414,-1.70117 a 7.3039999,7.3039999 0 0 0 -9.447266,4.17969 7.3039999,7.3039999 0 0 0 4.179687,9.44531 c 7.182086,2.77676 13.384965,3.66032 18.94336,2.21289 5.558395,-1.44742 9.686118,-5.49399 11.900388,-9.63086 4.42855,-8.27374 4.05971,-17.42769 4.59766,-21.88086 a 7.3039999,7.3039999 0 0 0 -6.375,-8.12695 z"
             id="path911" />
          <path
             style="color:#000000;fill:#000000;stroke-linecap:round;-inkscape-stroke:none"
             d="m 101.91602,133.80078 a 7.3039999,7.3039999 0 0 0 -6.375004,8.12695 c 0.53795,4.45317 0.167155,13.60712 4.595704,21.88086 2.21427,4.13687 6.34199,8.18344 11.90039,9.63086 5.55839,1.44743 11.76323,0.56387 18.94531,-2.21289 a 7.3039999,7.3039999 0 0 0 4.17969,-9.44531 7.3039999,7.3039999 0 0 0 -9.44727,-4.17969 c -5.44785,2.10627 -8.59403,2.06627 -9.99609,1.70117 -1.40206,-0.3651 -1.84531,-0.78603 -2.70312,-2.38867 -1.71564,-3.20527 -2.23307,-10.61595 -2.97266,-16.73828 a 7.3039999,7.3039999 0 0 0 -8.12695,-6.375 z"
             id="path1320" />
        </g>
      </g>
      <path
         style="color:#000000;fill:#000000;-inkscape-stroke:none"
         d="m 160.86133,46.570312 c -2.20593,0.185295 -4.39649,0.970399 -6.0918,2.433594 -3.39063,2.92639 -5.28594,7.223987 -6.79101,13.214844 l 10.34179,2.599609 c 1.22625,-4.881019 2.87296,-7.273487 3.41602,-7.742187 0.54305,-0.4687 -0.49952,-0.350263 0.2832,0.06836 1.56544,0.837245 6.20704,7.03713 8.50781,14.607422 2.30078,7.570292 2.82675,16.347456 0.8711,21.904297 -0.97783,2.77842 -2.38737,4.702505 -4.4336,6.011719 -2.04622,1.309211 -4.97052,2.151731 -9.5957,1.765621 l -0.88867,10.625 c 6.37074,0.53183 11.9169,-0.64704 16.23242,-3.4082 4.31553,-2.76115 7.15865,-6.95556 8.74219,-11.455078 3.16708,-8.999043 2.0487,-19.413394 -0.72656,-28.544921 -2.77527,-9.131528 -6.64063,-17.143508 -13.67969,-20.908204 -1.75977,-0.941173 -3.98157,-1.357169 -6.1875,-1.171875 z"
         id="path947" />
    </g>
  </g>
</svg>
