<?xml version="1.0" encoding="UTF-8" standalone="no"?>
<svg
   sodipodi:docname="shower.svg"
   width="800"
   height="800"
   viewBox="0 0 211.66666 211.66667"
   version="1.1"
   id="svg8"
   inkscape:version="1.1.2 (0a00cf5339, 2022-02-04)"
   xmlns:inkscape="http://www.inkscape.org/namespaces/inkscape"
   xmlns:sodipodi="http://sodipodi.sourceforge.net/DTD/sodipodi-0.dtd"
   xmlns="http://www.w3.org/2000/svg"
   xmlns:svg="http://www.w3.org/2000/svg"
   xmlns:rdf="http://www.w3.org/1999/02/22-rdf-syntax-ns#"
   xmlns:cc="http://creativecommons.org/ns#"
   xmlns:dc="http://purl.org/dc/elements/1.1/">
  <defs
     id="defs2" />
  <sodipodi:namedview
     inkscape:window-maximized="1"
     inkscape:window-y="30"
     inkscape:window-x="0"
     inkscape:window-height="1019"
     inkscape:window-width="1920"
     inkscape:guide-bbox="true"
     showguides="false"
     id="base"
     pagecolor="#ffffff"
     bordercolor="#666666"
     borderopacity="1.0"
     inkscape:pageopacity="0.0"
     inkscape:pageshadow="2"
     inkscape:zoom="0.37653436"
     inkscape:cx="-74.362403"
     inkscape:cy="458.12552"
     inkscape:document-units="px"
     inkscape:current-layer="layer1"
     inkscape:document-rotation="0"
     showgrid="false"
     units="px"
     inkscape:pagecheckerboard="0">
    <sodipodi:guide
       position="0,211.66666"
       orientation="0,800"
       id="guide10" />
    <sodipodi:guide
       position="211.66666,211.66666"
       orientation="800,0"
       id="guide12" />
    <sodipodi:guide
       position="211.66666,0"
       orientation="0,-800"
       id="guide14" />
    <sodipodi:guide
       position="0,0"
       orientation="-800,0"
       id="guide16" />
    <sodipodi:guide
       id="guide65"
       orientation="1,0"
       position="12.913271,259.30402" />
    <sodipodi:guide
       id="guide67"
       orientation="1,0"
       position="198.42693,260.17963" />
    <sodipodi:guide
       id="guide69"
       orientation="0,-1"
       position="-240.51312,198.52088" />
    <sodipodi:guide
       id="guide71"
       orientation="0,-1"
       position="-205.82869,13.316532" />
    <inkscape:grid
       id="grid77"
       type="xygrid" />
  </sodipodi:namedview>
  <metadata
     id="metadata5">
    <rdf:RDF>
      <cc:Work
         rdf:about="">
        <dc:format>image/svg+xml</dc:format>
        <dc:type
           rdf:resource="http://purl.org/dc/dcmitype/StillImage" />
      </cc:Work>
    </rdf:RDF>
  </metadata>
  <g
     inkscape:label="Capa 1"
     inkscape:groupmode="layer"
     id="layer1">
    <g
       style="stroke-width:1.15086"
       transform="matrix(0.86987649,0,0,0.86795608,13.913842,15.696349)"
       id="g920">
      <path
         style="color:#000000;fill:#000000;stroke-linecap:round;stroke-linejoin:round;-inkscape-stroke:none"
         d="m 15.482422,94.287109 c -2.075573,0 -3.863394,0.531363 -5.6113282,1.857422 -1.7479342,1.326059 -3.7186919,4.550559 -2.8476563,7.867189 l -0.1992188,-1.54688 c 10e-8,9.33927 -0.2123101,24.43366 5.9902343,38.00196 6.202545,13.56829 20.070478,25.01953 43.611328,25.01953 H 157.00391 c 22.50489,0 35.89337,-11.09896 41.8125,-24.46289 5.91912,-13.36393 5.70117,-28.38865 5.70117,-38.5586 l -0.25586,1.74219 c 1.00807,-3.37356 -1.03784,-6.748905 -2.79492,-8.072264 -1.75709,-1.32336 -3.52355,-1.847657 -5.60938,-1.847657 z M 19.058594,106.4668 H 192.28516 c -0.10038,9.53582 -0.71248,20.83998 -4.60352,29.625 -4.43671,10.017 -11.75927,17.21484 -30.67773,17.21484 H 56.425781 c -19.971597,0 -27.859589,-7.67632 -32.535156,-17.9043 -4.06396,-8.89006 -4.720549,-20.0078 -4.832031,-28.93554 z"
         id="rect65" />
      <g
         id="g911"
         transform="translate(11.930986)">
        <path
           style="color:#000000;fill:#000000;-inkscape-stroke:none"
           d="m 47.767578,24.595703 c -12.675975,0 -24.650391,11.423484 -24.650391,29.373047 V 99.419922 H 35.296875 V 53.96875 c 0,-13.09453 6.584916,-17.193359 12.470703,-17.193359 5.885787,0 12.472656,4.098829 12.472656,17.193359 h 12.179688 c 0,-17.949563 -11.976369,-29.373047 -24.652344,-29.373047 z"
           id="path891" />
        <g
           id="path893"
           transform="matrix(-0.84588052,0.53337243,-0.52929806,-0.84843595,0,0)">
          <path
             style="color:#000000;fill:#000000;stroke-width:12.18;stroke-linecap:round;stroke-linejoin:round;-inkscape-stroke:none"
             d="m -21.533199,-80.318069 a 10.677162,10.702025 0 0 1 -5.338582,9.268226 10.677162,10.702025 0 0 1 -10.677162,-10e-7 10.677162,10.702025 0 0 1 -5.338581,-9.268225 h 10.677163 z"
             id="path849" />
          <path
             style="color:#000000;fill:#000000;stroke-linecap:round;stroke-linejoin:round;-inkscape-stroke:none"
             d="m -42.886719,-86.408203 a 6.0906092,6.0906092 0 0 0 -6.089843,6.089844 c 0,5.984411 3.19655,11.54119 8.376953,14.539062 5.180403,2.997872 11.59694,2.997872 16.777343,0 5.180404,-2.997872 8.378907,-8.554651 8.378907,-14.539062 a 6.0906092,6.0906092 0 0 0 -6.089844,-6.089844 h -10.677734 z"
             id="path851" />
        </g>
      </g>
      <g
         id="g901"
         transform="translate(0.23840023,-11.221057)">
        <path
           style="color:#000000;fill:#000000;stroke-linecap:round;-inkscape-stroke:none"
           d="m 45.621094,167.83594 a 6.0899501,6.0899501 0 0 0 -6.089844,6.08984 v 14.30859 a 6.0899501,6.0899501 0 0 0 6.089844,6.08985 6.0899501,6.0899501 0 0 0 6.089843,-6.08985 v -14.30859 a 6.0899501,6.0899501 0 0 0 -6.089843,-6.08984 z"
           id="path895" />
        <path
           style="color:#000000;fill:#000000;stroke-linecap:round;-inkscape-stroke:none"
           d="m 165.24805,167.83594 a 6.0899501,6.0899501 0 0 0 -6.08985,6.08984 v 14.30859 a 6.0899501,6.0899501 0 0 0 6.08985,6.08985 6.0899501,6.0899501 0 0 0 6.08984,-6.08985 v -14.30859 a 6.0899501,6.0899501 0 0 0 -6.08984,-6.08984 z"
           id="path897" />
      </g>
    </g>
  </g>
</svg>
