<?xml version="1.0" encoding="UTF-8" standalone="no"?>
<svg
   inkscape:version="1.1.2 (0a00cf5339, 2022-02-04)"
   id="svg8"
   version="1.1"
   viewBox="0 0 211.66666 211.66667"
   height="800"
   width="800"
   sodipodi:docname="wc.svg"
   xmlns:inkscape="http://www.inkscape.org/namespaces/inkscape"
   xmlns:sodipodi="http://sodipodi.sourceforge.net/DTD/sodipodi-0.dtd"
   xmlns="http://www.w3.org/2000/svg"
   xmlns:svg="http://www.w3.org/2000/svg"
   xmlns:rdf="http://www.w3.org/1999/02/22-rdf-syntax-ns#"
   xmlns:cc="http://creativecommons.org/ns#"
   xmlns:dc="http://purl.org/dc/elements/1.1/">
  <defs
     id="defs2" />
  <sodipodi:namedview
     units="px"
     showgrid="false"
     inkscape:document-rotation="0"
     inkscape:current-layer="layer1"
     inkscape:document-units="px"
     inkscape:cy="453.25544"
     inkscape:cx="418.6072"
     inkscape:zoom="0.7071068"
     inkscape:pageshadow="2"
     inkscape:pageopacity="0.0"
     borderopacity="1.0"
     bordercolor="#666666"
     pagecolor="#ffffff"
     id="base"
     showguides="false"
     inkscape:guide-bbox="true"
     inkscape:window-width="1920"
     inkscape:window-height="1019"
     inkscape:window-x="0"
     inkscape:window-y="30"
     inkscape:window-maximized="1"
     inkscape:pagecheckerboard="0">
    <sodipodi:guide
       id="guide10"
       orientation="0,800"
       position="0,211.66666" />
    <sodipodi:guide
       id="guide12"
       orientation="800,0"
       position="211.66666,211.66666" />
    <sodipodi:guide
       id="guide14"
       orientation="0,-800"
       position="211.66666,0" />
    <sodipodi:guide
       id="guide16"
       orientation="-800,0"
       position="0,0" />
    <sodipodi:guide
       position="12.913271,259.30402"
       orientation="1,0"
       id="guide65" />
    <sodipodi:guide
       position="198.42693,260.17963"
       orientation="1,0"
       id="guide67" />
    <sodipodi:guide
       position="-240.51312,198.52088"
       orientation="0,-1"
       id="guide69" />
    <sodipodi:guide
       position="-205.82869,13.316532"
       orientation="0,-1"
       id="guide71" />
    <inkscape:grid
       type="xygrid"
       id="grid77" />
  </sodipodi:namedview>
  <metadata
     id="metadata5">
    <rdf:RDF>
      <cc:Work
         rdf:about="">
        <dc:format>image/svg+xml</dc:format>
        <dc:type
           rdf:resource="http://purl.org/dc/dcmitype/StillImage" />
      </cc:Work>
    </rdf:RDF>
  </metadata>
  <g
     id="layer1"
     inkscape:groupmode="layer"
     inkscape:label="Capa 1">
    <path
       style="color:#000000;fill:#000000;stroke-linecap:round;stroke-linejoin:round;-inkscape-stroke:none"
       d="m 105.76457,22.832138 c -18.626584,0.0347 -34.631301,14.24485 -40.250001,34.232422 -4.335973,15.424887 -2.083114,32.103581 5.958985,45.08008 -3.510269,1.78642 -6.714233,3.76342 -9.175782,6.18164 -3.701165,3.63601 -6.181766,8.24694 -6.234375,13.2832 l 0.04297,-0.043 a 5.292179,5.292179 0 0 0 -0.04297,0.10547 c 0.0096,6.41504 -0.67043,16.02439 2.507813,25.70703 2.907663,8.85831 9.601666,17.59266 21.824219,23.04687 v 13.11719 a 5.292179,5.292179 0 0 0 5.291015,5.29102 h 42.480466 a 5.292179,5.292179 0 0 0 5.29102,-5.29102 v -13.39453 c 11.03652,-5.39065 17.19282,-13.34115 19.85742,-21.75 2.92376,-9.22669 2.28481,-18.58999 2.28125,-26.64258 -3e-5,-0.0811 0,-0.11254 0,-0.0918 a 5.292179,5.292179 0 0 0 -0.0391,-0.0918 l 0.0391,0.0371 c -0.0523,-5.01859 -2.51752,-9.61686 -6.19727,-13.24609 -2.46785,-2.43399 -5.68462,-4.42117 -9.21289,-6.2168 8.07011,-13.018744 10.31363,-29.764073 5.92188,-45.228515 C 140.4374,36.950121 124.39095,22.797367 105.76457,22.832088 Z m 0.0195,10.583984 c 13.2271,-0.02466 25.52748,10.144262 30.14258,26.394532 4.12944,14.540772 0.84794,30.820335 -8.01172,41.337886 a 5.292179,5.292179 0 0 0 3.64648,8.44727 l -0.46484,-0.0859 c 4.91756,1.84942 8.61444,4.16299 10.87109,6.38867 2.25666,2.22568 3.02737,4.13476 3.04493,5.82031 a 5.292179,5.292179 0 0 0 0.002,0.004 c 8e-5,0.008 0,0.0446 0,0.0371 0.004,8.46439 0.33778,16.7296 -1.78906,23.44141 -2.12684,6.7118 -6.14227,12.2489 -17.04493,16.66601 a 5.292179,5.292179 0 0 0 -3.30468,4.9043 v 11.48047 H 90.979413 V 166.926 a 5.292179,5.292179 0 0 0 -3.490234,-4.97656 C 75.525684,157.6183 70.988875,151.27725 68.625897,144.07835 c -2.356346,-7.1787 -1.972245,-15.37804 -1.980468,-22.35938 6e-6,-5.7e-4 -6e-6,-0.001 0,-0.002 0.01818,-1.69115 0.797047,-3.60855 3.070312,-5.8418 2.229796,-2.19054 5.889144,-4.45213 10.695313,-6.2832 a 5.292179,5.292179 0 0 0 3.308593,-8.47851 C 74.906723,90.624826 71.62872,74.425414 75.704022,59.927841 80.277485,43.658521 92.55685,33.440765 105.7841,33.416122 Z"
       id="path1038" />
    <path
       id="path1074"
       style="stroke-width:10.5833;stroke-linecap:round;stroke-linejoin:round"
       d="m 138.89436,123.5468 a 33.061028,10.393606 0 0 1 -33.06103,10.39361 33.061028,10.393606 0 0 1 -33.061026,-10.39361 33.061028,10.393606 0 0 1 33.061026,-10.3936 33.061028,10.393606 0 0 1 33.06103,10.3936 z" />
  </g>
</svg>
